<?xml version="1.0" standalone="no"?>
<svg xmlns:xlink="http://www.w3.org/1999/xlink" id="wave" style="transform:rotate(0deg); transition: 0.3s" viewBox="0 0 1440 490" version="1.1" xmlns="http://www.w3.org/2000/svg"><defs><linearGradient id="sw-gradient-0" x1="0" x2="0" y1="1" y2="0"><stop stop-color="rgba(238, 77, 95, 1)" offset="0%"/><stop stop-color="rgba(255, 205, 165, 1)" offset="100%"/></linearGradient></defs><path style="transform:translate(0, 0px); opacity:1" fill="url(#sw-gradient-0)" d="M0,196L21.8,163.3C43.6,131,87,65,131,89.8C174.5,114,218,229,262,253.2C305.5,278,349,212,393,212.3C436.4,212,480,278,524,302.2C567.3,327,611,310,655,310.3C698.2,310,742,327,785,334.8C829.1,343,873,343,916,318.5C960,294,1004,245,1047,187.8C1090.9,131,1135,65,1178,73.5C1221.8,82,1265,163,1309,196C1352.7,229,1396,212,1440,212.3C1483.6,212,1527,229,1571,228.7C1614.5,229,1658,212,1702,220.5C1745.5,229,1789,261,1833,261.3C1876.4,261,1920,229,1964,187.8C2007.3,147,2051,98,2095,81.7C2138.2,65,2182,82,2225,147C2269.1,212,2313,327,2356,375.7C2400,425,2444,408,2487,400.2C2530.9,392,2575,392,2618,343C2661.8,294,2705,196,2749,196C2792.7,196,2836,294,2880,351.2C2923.6,408,2967,425,3011,416.5C3054.5,408,3098,376,3120,359.3L3141.8,343L3141.8,490L3120,490C3098.2,490,3055,490,3011,490C2967.3,490,2924,490,2880,490C2836.4,490,2793,490,2749,490C2705.5,490,2662,490,2618,490C2574.5,490,2531,490,2487,490C2443.6,490,2400,490,2356,490C2312.7,490,2269,490,2225,490C2181.8,490,2138,490,2095,490C2050.9,490,2007,490,1964,490C1920,490,1876,490,1833,490C1789.1,490,1745,490,1702,490C1658.2,490,1615,490,1571,490C1527.3,490,1484,490,1440,490C1396.4,490,1353,490,1309,490C1265.5,490,1222,490,1178,490C1134.5,490,1091,490,1047,490C1003.6,490,960,490,916,490C872.7,490,829,490,785,490C741.8,490,698,490,655,490C610.9,490,567,490,524,490C480,490,436,490,393,490C349.1,490,305,490,262,490C218.2,490,175,490,131,490C87.3,490,44,490,22,490L0,490Z"/><defs><linearGradient id="sw-gradient-1" x1="0" x2="0" y1="1" y2="0"><stop stop-color="rgba(238, 77, 95, 1)" offset="0%"/><stop stop-color="rgba(255, 205, 165, 1)" offset="100%"/></linearGradient></defs><path style="transform:translate(0, 50px); opacity:0.9" fill="url(#sw-gradient-1)" d="M0,0L21.8,8.2C43.6,16,87,33,131,73.5C174.5,114,218,180,262,236.8C305.5,294,349,343,393,375.7C436.4,408,480,425,524,408.3C567.3,392,611,343,655,334.8C698.2,327,742,359,785,367.5C829.1,376,873,359,916,318.5C960,278,1004,212,1047,220.5C1090.9,229,1135,310,1178,318.5C1221.8,327,1265,261,1309,212.3C1352.7,163,1396,131,1440,163.3C1483.6,196,1527,294,1571,326.7C1614.5,359,1658,327,1702,318.5C1745.5,310,1789,327,1833,318.5C1876.4,310,1920,278,1964,253.2C2007.3,229,2051,212,2095,245C2138.2,278,2182,359,2225,392C2269.1,425,2313,408,2356,400.2C2400,392,2444,392,2487,383.8C2530.9,376,2575,359,2618,367.5C2661.8,376,2705,408,2749,359.3C2792.7,310,2836,180,2880,106.2C2923.6,33,2967,16,3011,40.8C3054.5,65,3098,131,3120,163.3L3141.8,196L3141.8,490L3120,490C3098.2,490,3055,490,3011,490C2967.3,490,2924,490,2880,490C2836.4,490,2793,490,2749,490C2705.5,490,2662,490,2618,490C2574.5,490,2531,490,2487,490C2443.6,490,2400,490,2356,490C2312.7,490,2269,490,2225,490C2181.8,490,2138,490,2095,490C2050.9,490,2007,490,1964,490C1920,490,1876,490,1833,490C1789.1,490,1745,490,1702,490C1658.2,490,1615,490,1571,490C1527.3,490,1484,490,1440,490C1396.4,490,1353,490,1309,490C1265.5,490,1222,490,1178,490C1134.5,490,1091,490,1047,490C1003.6,490,960,490,916,490C872.7,490,829,490,785,490C741.8,490,698,490,655,490C610.9,490,567,490,524,490C480,490,436,490,393,490C349.1,490,305,490,262,490C218.2,490,175,490,131,490C87.3,490,44,490,22,490L0,490Z"/><defs><linearGradient id="sw-gradient-2" x1="0" x2="0" y1="1" y2="0"><stop stop-color="rgba(238, 77, 95, 1)" offset="0%"/><stop stop-color="rgba(255, 205, 165, 1)" offset="100%"/></linearGradient></defs><path style="transform:translate(0, 100px); opacity:0.8" fill="url(#sw-gradient-2)" d="M0,0L21.8,0C43.6,0,87,0,131,57.2C174.5,114,218,229,262,245C305.5,261,349,180,393,155.2C436.4,131,480,163,524,187.8C567.3,212,611,229,655,204.2C698.2,180,742,114,785,98C829.1,82,873,114,916,114.3C960,114,1004,82,1047,81.7C1090.9,82,1135,114,1178,130.7C1221.8,147,1265,147,1309,155.2C1352.7,163,1396,180,1440,204.2C1483.6,229,1527,261,1571,253.2C1614.5,245,1658,196,1702,155.2C1745.5,114,1789,82,1833,81.7C1876.4,82,1920,114,1964,163.3C2007.3,212,2051,278,2095,294C2138.2,310,2182,278,2225,236.8C2269.1,196,2313,147,2356,163.3C2400,180,2444,261,2487,269.5C2530.9,278,2575,212,2618,196C2661.8,180,2705,212,2749,236.8C2792.7,261,2836,278,2880,302.2C2923.6,327,2967,359,3011,343C3054.5,327,3098,261,3120,228.7L3141.8,196L3141.8,490L3120,490C3098.2,490,3055,490,3011,490C2967.3,490,2924,490,2880,490C2836.4,490,2793,490,2749,490C2705.5,490,2662,490,2618,490C2574.5,490,2531,490,2487,490C2443.6,490,2400,490,2356,490C2312.7,490,2269,490,2225,490C2181.8,490,2138,490,2095,490C2050.9,490,2007,490,1964,490C1920,490,1876,490,1833,490C1789.1,490,1745,490,1702,490C1658.2,490,1615,490,1571,490C1527.3,490,1484,490,1440,490C1396.4,490,1353,490,1309,490C1265.5,490,1222,490,1178,490C1134.5,490,1091,490,1047,490C1003.6,490,960,490,916,490C872.7,490,829,490,785,490C741.8,490,698,490,655,490C610.9,490,567,490,524,490C480,490,436,490,393,490C349.1,490,305,490,262,490C218.2,490,175,490,131,490C87.3,490,44,490,22,490L0,490Z"/></svg>